#!OML:ASF H:\Terrain\Patient Classification 1\Walking\steve\steve.ASF
:FULLY-SPECIFIED
:DEGREES
121
root 8.32385 14.9027 -13.6127 10.993 -14.0661 -10.1311
lowerback -0.750611 7.47681 6.65503
upperback -2.57401 10.024 1.21427
thorax -1.34201 4.9118 -2.36712
lowerneck -8.59558 -0.953396 -0.972367
upperneck 9.90197 -1.38617 2.05679
head 4.3931 -0.597736 0.703565
rclavicle -1.59897e-014 -2.90226e-014
rhumerus -17.664 13.903 -78.2525
rradius 50.3342
rwrist -8.8343
rhand -19.7657 -36.6894
rfingers 7.12502
rthumb 6.56596 -66.5676
lclavicle -1.59897e-014 -2.90226e-014
lhumerus -67.6972 7.10478 59.4876
lradius 18.5932
lwrist -2.30368
lhand -20.5001 -19.1926
lfingers 7.12502
lthumb 5.85696 10.7064
rfemur 20.0021 4.98151 26.296
rtibia 8.97744
rfoot 6.13694 23.8824
rtoes 13.9172
lfemur -51.303 8.48335 -5.9188
ltibia 30.4978
lfoot -10.8489 12.7148
ltoes -1.04727
122
root 8.34906 14.871 -13.3674 11.3109 -14.0175 -9.9639
lowerback -1.14826 7.46402 6.41019
upperback -2.56615 9.96977 0.972614
thorax -1.11418 4.89528 -2.42518
lowerneck -8.77531 -0.925014 -0.933523
upperneck 9.13786 -1.34139 2.05842
head 4.65216 -0.582838 0.778265
rclavicle -1.35745e-013 -7.7526e-015
rhumerus -18.3031 13.8168 -78.5172
rradius 50.5179
rwrist -8.94464
rhand -19.2772 -36.3055
rfingers 7.12502
rthumb 7.03757 -66.1685
lclavicle -1.35745e-013 -7.7526e-015
lhumerus -67.4938 8.1115 57.4671
lradius 17.6962
lwrist -4.33571
lhand -20.0026 -19.5994
lfingers 7.12502
lthumb 6.33729 10.2858
rfemur 20.3048 5.54665 25.9829
rtibia 9.14642
rfoot 6.41656 23.3037
rtoes 15.0131
lfemur -52.7459 9.11416 -6.75859
ltibia 33.5303
lfoot -9.96945 11.6503
ltoes 1.76246
123
root 8.37358 14.8288 -13.1221 11.5941 -13.8124 -9.93776
lowerback -1.38763 7.37714 6.22329
upperback -2.59761 9.83571 0.858968
thorax -1.03534 4.83283 -2.4153
lowerneck -9.07816 -0.971998 -1.21514
upperneck 9.39626 -1.4071 2.41381
head 4.32299 -0.595974 0.849854
rclavicle -5.79954e-014 -2.62396e-014
rhumerus -19.1065 13.8574 -78.7694
rradius 50.7473
rwrist -8.99833
rhand -18.1765 -36.9484
rfingers 7.12502
rthumb 8.09995 -66.7731
lclavicle -5.79954e-014 -2.62396e-014
lhumerus -67.555 8.6482 56.4458
lradius 17.2817
lwrist -5.27081
lhand -19.9543 -20.1297
lfingers 7.12502
lthumb 6.38392 9.75408
rfemur 20.5293 5.98294 25.8185
rtibia 9.70004
rfoot 6.88626 22.8387
rtoes 15.6378
lfemur -54.2345 9.50473 -7.32115
ltibia 36.8256
lfoot -9.68072 10.1521
ltoes 3.5344
124
root 8.39801 14.7775 -12.8889 12.0225 -13.2168 -10.0797
lowerback -1.59965 7.27645 6.25907
upperback -2.68661 9.68781 0.736719
thorax -0.995682 4.7576 -2.54011
lowerneck -9.33111 -1.17484 -1.7772
upperneck 9.21137 -1.66573 3.03827
head 4.3231 -0.706209 1.11566
rclavicle 3.54582e-014 -2.38542e-014
rhumerus -20.0557 13.4883 -79.0086
rradius 51.0401
rwrist -9.05508
rhand -18.315 -36.6878
rfingers 7.12502
rthumb 7.96629 -66.5177
lclavicle 3.54582e-014 -2.38542e-014
lhumerus -67.5365 8.74118 56.0167
lradius 17.3282
lwrist -5.67029
lhand -19.9295 -20.7124
lfingers 7.12502
lthumb 6.40791 9.17069
rfemur 20.513 6.05598 25.9597
rtibia 10.4295
rfoot 7.8355 22.2205
rtoes 13.8983
lfemur -56.1247 9.84853 -7.86807
ltibia 40.1539
lfoot -8.28451 9.14356
ltoes -0.730923
125
root 8.42244 14.7375 -12.6641 12.4466 -12.9605 -10.413
lowerback -1.54219 7.38828 6.4496
upperback -2.85467 9.84753 0.601056
thorax -1.13399 4.82642 -2.79125
lowerneck -9.58204 -1.37633 -2.1144
upperneck 8.99221 -1.93197 3.50257
head 4.31207 -0.821203 1.29484
rclavicle -2.16178e-014 -8.34896e-015
rhumerus -21.3502 13.0135 -79.2022
rradius 51.4938
rwrist -9.32116
rhand -19.3436 -35.5182
rfingers 7.12502
rthumb 6.97348 -65.3834
lclavicle -2.16178e-014 -8.34896e-015
lhumerus -67.3771 8.95594 54.9893
lradius 17.1271
lwrist -7.07031
lhand -19.6853 -20.8563
lfingers 7.12502
lthumb 6.64365 9.01946
rfemur 20.4178 6.8213 26.518
rtibia 11.0812
rfoot 8.65736 20.8837
rtoes 13.6234
lfemur -57.8005 10.4444 -8.18022
ltibia 43.2704
lfoot -6.66238 8.51206
ltoes -7.93404
126
root 8.44683 14.6995 -12.435 12.7176 -12.6215 -10.3047
lowerback -1.56165 7.44583 6.2404
upperback -3.02189 9.92988 0.421193
thorax -1.29114 4.8625 -2.87095
lowerneck -9.59248 -1.52325 -2.46728
upperneck 8.65236 -2.11137 3.88195
head 4.22278 -0.90192 1.45717
rclavicle 1.47498e-013 3.85642e-014
rhumerus -22.8221 12.7601 -79.2881
rradius 52.0187
rwrist -9.68837
rhand -19.1568 -36.087
rfingers 7.12502
rthumb 7.15382 -65.9461
lclavicle 1.47498e-013 3.85642e-014
lhumerus -67.1699 9.18703 53.969
lradius 16.5537
lwrist -8.67293
lhand -19.6947 -21.0685
lfingers 7.12502
lthumb 6.63455 8.80757
rfemur 20.6309 7.28016 26.5781
rtibia 11.3019
rfoot 9.63371 19.5843
rtoes 13.2941
lfemur -59.1632 10.6086 -8.88501
ltibia 46.0208
lfoot -5.64258 7.55016
ltoes -9.2007
127
root 8.4631 14.6643 -12.2059 12.9882 -12.2329 -9.90327
lowerback -1.75452 7.42641 5.63315
upperback -3.15471 9.89527 0.148985
thorax -1.37458 4.8504 -2.8125
lowerneck -9.47723 -1.66 -2.60624
upperneck 8.3088 -2.29431 4.13664
head 4.10938 -0.986037 1.5469
rclavicle 8.54774e-015 6.36111e-015
rhumerus -24.154 12.346 -79.5359
rradius 52.3417
rwrist -9.77674
rhand -17.9227 -38.4347
rfingers 7.12502
rthumb 8.34498 -68.2498
lclavicle 8.54774e-015 6.36111e-015
lhumerus -66.7802 9.52647 52.8393
lradius 16.0134
lwrist -10.2594
lhand -19.6269 -21.4595
lfingers 7.12502
lthumb 6.69996 8.41446
rfemur 20.893 7.79548 26.4374
rtibia 11.4848
rfoot 10.624 18.161
rtoes 11.4557
lfemur -60.3149 10.6209 -9.84947
ltibia 48.2392
lfoot -5.24565 6.4301
ltoes -5.79971
128
root 8.47392 14.6593 -11.9733 13.3266 -11.9742 -9.39534
lowerback -1.94204 7.42356 4.80818
upperback -3.32126 9.88595 -0.194362
thorax -1.51637 4.8533 -2.71381
lowerneck -9.80667 -1.82001 -2.40339
upperneck 8.26072 -2.53025 4.13418
head 4.15489 -1.09249 1.49574
rclavicle 3.25013e-014 2.14687e-014
rhumerus -25.4835 11.8318 -79.909
rradius 52.4752
rwrist -9.82942
rhand -17.1812 -40.0568
rfingers 7.12502
rthumb 9.06054 -69.8422
lclavicle 3.25013e-014 2.14687e-014
lhumerus -66.1719 9.94001 51.5944
lradius 15.5504
lwrist -11.6735
lhand -19.0253 -21.1331
lfingers 7.12502
lthumb 7.28078 8.72167
rfemur 20.8745 8.36104 26.1436
rtibia 11.9645
rfoot 11.6418 16.4995
rtoes 10.968
lfemur -61.2221 10.7991 -11.0337
ltibia 49.9846
lfoot -5.31817 5.53473
ltoes -4.21445
